<svg xmlns="http://www.w3.org/2000/svg" viewBox="0 0 640 180" role="img" aria-labelledby="title desc"><title id="title">BrightBay Dental logo</title><desc id="desc">HEALTHY SMILES START HERE</desc><rect x="3" y="3" width="634" height="174" rx="25" fill="#090909" stroke="#22d3ee" stroke-width="6"/><g transform="translate(18 0)" color="#22d3ee"><path d="M69 43c14-6 23 4 31 4s17-10 31-4c21 9 20 34 13 51-9 22-14 49-27 49-11 0-7-34-17-34s-6 34-17 34c-13 0-18-27-27-49-7-17-8-42 13-51Z" fill="none" stroke="currentColor" stroke-width="8" stroke-linejoin="round"/></g><path d="M190 33v114" stroke="#22d3ee" stroke-width="3" opacity=".55"/><text x="220" y="85" fill="#fff" font-family="Arial,Helvetica,sans-serif" font-size="40" font-weight="800" letter-spacing="-1">BrightBay Dental</text><text x="222" y="119" fill="#22d3ee" font-family="Arial,Helvetica,sans-serif" font-size="15" font-weight="700" letter-spacing="3">HEALTHY SMILES START HERE</text></svg>